<?xml version="1.0" encoding="UTF-8"?>
<svg xmlns="http://www.w3.org/2000/svg" width="235" height="115">
   <defs>
      <style type="text/css">
    @namespace "http://www.w3.org/2000/svg";
    .line                 {fill: none; stroke: #332900; stroke-width: 1;}
    .bold-line            {stroke: #141000; shape-rendering: crispEdges; stroke-width: 2;}
    .thin-line            {stroke: #1F1800; shape-rendering: crispEdges}
    .filled               {fill: #332900; stroke: none;}
    text.terminal         {font-family: Verdana, Sans-serif;
                            font-size: 12px;
                            fill: #141000;
                            font-weight: bold;
                          }
    text.nonterminal      {font-family: Verdana, Sans-serif;
                            font-size: 12px;
                            fill: #1A1400;
                            font-weight: normal;
                          }
    text.regexp           {font-family: Verdana, Sans-serif;
                            font-size: 12px;
                            fill: #1F1800;
                            font-weight: normal;
                          }
    rect, circle, polygon {fill: #332900; stroke: #332900;}
    rect.terminal         {fill: #FFDB4D; stroke: #332900; stroke-width: 1;}
    rect.nonterminal      {fill: #FFEC9E; stroke: #332900; stroke-width: 1;}
    rect.text             {fill: none; stroke: none;}
    polygon.regexp        {fill: #FFF4C7; stroke: #332900; stroke-width: 1;}
  </style>
   </defs>
   <polygon points="9 95 1 91 1 99"/>
   <polygon points="17 95 9 91 9 99"/>
   <a xmlns:xlink="http://www.w3.org/1999/xlink"
      xlink:href="#Letter"
      xlink:title="Letter">
      <rect x="31" y="81" width="58" height="32"/>
      <rect x="29" y="79" width="58" height="32" class="nonterminal"/>
      <text class="nonterminal" x="39" y="99">Letter</text>
   </a>
   <a xmlns:xlink="http://www.w3.org/1999/xlink"
      xlink:href="#Letter"
      xlink:title="Letter">
      <rect x="129" y="47" width="58" height="32"/>
      <rect x="127" y="45" width="58" height="32" class="nonterminal"/>
      <text class="nonterminal" x="137" y="65">Letter</text>
   </a>
   <a xmlns:xlink="http://www.w3.org/1999/xlink"
      xlink:href="#Digit"
      xlink:title="Digit">
      <rect x="129" y="3" width="48" height="32"/>
      <rect x="127" y="1" width="48" height="32" class="nonterminal"/>
      <text class="nonterminal" x="137" y="21">Digit</text>
   </a>
   <path class="line"
         d="m17 95 h2 m0 0 h10 m58 0 h10 m20 0 h10 m0 0 h68 m-98 0 l20 0 m-1 0 q-9 0 -9 -10 l0 -14 q0 -10 10 -10 m78 34 l20 0 m-20 0 q10 0 10 -10 l0 -14 q0 -10 -10 -10 m-78 0 h10 m58 0 h10 m-88 10 l0 -44 q0 -10 10 -10 m88 54 l0 -44 q0 -10 -10 -10 m-78 0 h10 m48 0 h10 m0 0 h10 m23 78 h-3"/>
   <polygon points="225 95 233 91 233 99"/>
   <polygon points="225 95 217 91 217 99"/>
</svg>
