<?xml version="1.0" encoding="UTF-8"?>
<svg xmlns="http://www.w3.org/2000/svg" width="475" height="201">
   <defs>
      <style type="text/css">
    @namespace "http://www.w3.org/2000/svg";
    .line                 {fill: none; stroke: #332900; stroke-width: 1;}
    .bold-line            {stroke: #141000; shape-rendering: crispEdges; stroke-width: 2;}
    .thin-line            {stroke: #1F1800; shape-rendering: crispEdges}
    .filled               {fill: #332900; stroke: none;}
    text.terminal         {font-family: Verdana, Sans-serif;
                            font-size: 12px;
                            fill: #141000;
                            font-weight: bold;
                          }
    text.nonterminal      {font-family: Verdana, Sans-serif;
                            font-size: 12px;
                            fill: #1A1400;
                            font-weight: normal;
                          }
    text.regexp           {font-family: Verdana, Sans-serif;
                            font-size: 12px;
                            fill: #1F1800;
                            font-weight: normal;
                          }
    rect, circle, polygon {fill: #332900; stroke: #332900;}
    rect.terminal         {fill: #FFDB4D; stroke: #332900; stroke-width: 1;}
    rect.nonterminal      {fill: #FFEC9E; stroke: #332900; stroke-width: 1;}
    rect.text             {fill: none; stroke: none;}
    polygon.regexp        {fill: #FFF4C7; stroke: #332900; stroke-width: 1;}
  </style>
   </defs>
   <polygon points="9 17 1 13 1 21"/>
   <polygon points="17 17 9 13 9 21"/>
   <a xmlns:xlink="http://www.w3.org/1999/xlink"
      xlink:href="#UnsignedInt"
      xlink:title="UnsignedInt">
      <rect x="51" y="3" width="96" height="32"/>
      <rect x="49" y="1" width="96" height="32" class="nonterminal"/>
      <text class="nonterminal" x="59" y="21">UnsignedInt</text>
   </a>
   <rect x="207" y="35" width="24" height="32" rx="10"/>
   <rect x="205"
         y="33"
         width="24"
         height="32"
         class="terminal"
         rx="10"/>
   <text class="terminal" x="215" y="53">.</text>
   <rect x="207" y="79" width="24" height="32" rx="10"/>
   <rect x="205"
         y="77"
         width="24"
         height="32"
         class="terminal"
         rx="10"/>
   <text class="terminal" x="215" y="97">,</text>
   <a xmlns:xlink="http://www.w3.org/1999/xlink"
      xlink:href="#UnsignedInt"
      xlink:title="UnsignedInt">
      <rect x="291" y="67" width="96" height="32"/>
      <rect x="289" y="65" width="96" height="32" class="nonterminal"/>
      <text class="nonterminal" x="299" y="85">UnsignedInt</text>
   </a>
   <rect x="71" y="123" width="24" height="32" rx="10"/>
   <rect x="69"
         y="121"
         width="24"
         height="32"
         class="terminal"
         rx="10"/>
   <text class="terminal" x="79" y="141">.</text>
   <rect x="71" y="167" width="24" height="32" rx="10"/>
   <rect x="69"
         y="165"
         width="24"
         height="32"
         class="terminal"
         rx="10"/>
   <text class="terminal" x="79" y="185">,</text>
   <a xmlns:xlink="http://www.w3.org/1999/xlink"
      xlink:href="#UnsignedInt"
      xlink:title="UnsignedInt">
      <rect x="135" y="123" width="96" height="32"/>
      <rect x="133" y="121" width="96" height="32" class="nonterminal"/>
      <text class="nonterminal" x="143" y="141">UnsignedInt</text>
   </a>
   <path class="line"
         d="m17 17 h2 m20 0 h10 m96 0 h10 m20 0 h10 m0 0 h230 m-260 0 h20 m240 0 h20 m-280 0 q10 0 10 10 m260 0 q0 -10 10 -10 m-270 10 v12 m260 0 v-12 m-260 12 q0 10 10 10 m240 0 q10 0 10 -10 m-230 10 h10 m24 0 h10 m-64 0 h20 m44 0 h20 m-84 0 q10 0 10 10 m64 0 q0 -10 10 -10 m-74 10 v24 m64 0 v-24 m-64 24 q0 10 10 10 m44 0 q10 0 10 -10 m-54 10 h10 m24 0 h10 m40 -44 h10 m0 0 h106 m-136 0 h20 m116 0 h20 m-156 0 q10 0 10 10 m136 0 q0 -10 10 -10 m-146 10 v12 m136 0 v-12 m-136 12 q0 10 10 10 m116 0 q10 0 10 -10 m-126 10 h10 m96 0 h10 m-376 -64 h20 m396 0 h20 m-436 0 q10 0 10 10 m416 0 q0 -10 10 -10 m-426 10 v100 m416 0 v-100 m-416 100 q0 10 10 10 m396 0 q10 0 10 -10 m-386 10 h10 m24 0 h10 m-64 0 h20 m44 0 h20 m-84 0 q10 0 10 10 m64 0 q0 -10 10 -10 m-74 10 v24 m64 0 v-24 m-64 24 q0 10 10 10 m44 0 q10 0 10 -10 m-54 10 h10 m24 0 h10 m20 -44 h10 m96 0 h10 m0 0 h196 m23 -120 h-3"/>
   <polygon points="465 17 473 13 473 21"/>
   <polygon points="465 17 457 13 457 21"/>
</svg>
